<svg id="Layer_1" data-name="Layer 1" xmlns="http://www.w3.org/2000/svg" viewBox="0 0 496.69 260.78"><path d="M381.14,435.94c-8.07,0-16.16-.21-23.9-2.79-6-2-12.14-3.59-17.33-7.49a19.08,19.08,0,0,1-7.26-9.89A160.64,160.64,0,0,1,328,394.4c-1-6.51-1.08-13.14-3-19.51a39.05,39.05,0,0,0-4.5-9.8c-4.36-6.85-9.19-13.39-12.95-20.66a17.37,17.37,0,0,0-10-8.72,13.27,13.27,0,0,0-10,.56,42.14,42.14,0,0,0-11.67,7.85,344.19,344.19,0,0,1-31.25,26.2c-5.29,3.92-10.89,7.14-17.69,7.54a30.93,30.93,0,0,1-22.59-7.57c-5.25-4.48-11.23-8-16.34-12.64a297.86,297.86,0,0,1-33.23-35.54c-3.19-4-6.22-8.29-7.15-13.8-1.29-7.61,1-14.23,4.32-20.73a88.07,88.07,0,0,1,17.47-23.41c18.82-18.05,38.79-34.65,61.69-47.34,10.26-5.69,20.44-11.64,31.35-16,13.06-5.2,26.37-9.7,39.84-13.8,12.06-3.68,24.39-5.82,36.74-8a272.88,272.88,0,0,1,34.83-3.52c7.54-.33,15.06-.5,22.58-.37,18.51.33,36.84,2,54.66,7.56,11.11,3.48,22.65,5.46,33.69,9.23,8.38,2.86,16.72,5.75,24.83,9.34,9.48,4.21,19.27,7.71,28.69,12.08,10.2,4.74,19.38,11.17,28.79,17.23,10.48,6.74,19.43,15.4,29,23.26,13.87,11.38,24.37,25.8,35.32,39.78,7.86,10,11.7,21.7,12.48,34.34a13.5,13.5,0,0,1-5,11.73c-10.53,9.11-23,14.56-35.74,19.44A125.55,125.55,0,0,0,585.87,367a22.76,22.76,0,0,1-7.67,2.55,19.54,19.54,0,0,0-6.42,2c-6.66,3.67-14.1,5-21.4,6.55-5.68,1.2-10.89-1.31-15.82-3.75A38.19,38.19,0,0,1,519.45,361a6.14,6.14,0,0,0-1.23-1.45c-8.67-6.79-16.49-14.78-27-19-3.51-1.43-6.87-3.24-10.24-5a45.38,45.38,0,0,0-9.73-3.3c-1.8-.46-3.36.33-4.88,1.16-6.85,3.74-11.33,9.75-15.38,16.13a33.33,33.33,0,0,0-4.93,16.94c-.13,3.41-1.41,6.76-.91,10.22,1.11,7.7-.08,15.38-.14,23.06-.06,7.23-2.92,13.52-7.85,19.09-6.93,7.83-16,11.17-25.64,13.68A116.91,116.91,0,0,1,381.14,435.94Zm59.73-46.16c-.32-7.34-.27-14.25,1.06-21,1.08-5.54,1.83-11.21,4.16-16.45,4-9.11,10.62-16,18.52-21.92a11.82,11.82,0,0,1,12.69-1.54c12.73,5.5,25.21,11.41,35.74,20.68,3.53,3.1,7.4,5.86,10.23,9.7a72.24,72.24,0,0,0,7.06,8.26c6.1,6.09,13.58,7.92,21.74,6,11.06-2.57,21.76-6.45,32.61-9.77a16.28,16.28,0,0,0,4.87-2.31,33.82,33.82,0,0,1,11-5,65.7,65.7,0,0,0,12.28-5c3.78-1.93,7.47-4,11.24-6a71.27,71.27,0,0,0,11.33-6.9c2.28-1.79,4.32-3.8,4.68-6.73A35.61,35.61,0,0,0,640,321.5a63,63,0,0,0-11-25.68c-6.17-8.68-12.66-17.26-20.86-24.3a39.11,39.11,0,0,1-5-5.33,95,95,0,0,0-23.31-21c-7-4.42-13.19-9.9-19.74-14.92-13.72-10.54-29.44-17.24-45.39-23.42-7.14-2.77-14.74-4.38-21.82-7.26-14-5.7-28.49-9.83-43.1-13.48A225.85,225.85,0,0,0,412.37,180a191.05,191.05,0,0,0-26.1-.5c-7.5.46-15,1-22.54,1a188.62,188.62,0,0,0-20.88,1.32,231.74,231.74,0,0,0-29.49,5.67c-10.93,2.77-21.65,6.17-32.33,9.82a332.59,332.59,0,0,0-31.47,13c-16.95,7.8-32.05,18.67-47,29.59-11.25,8.2-22,17.06-31.47,27.51a154.26,154.26,0,0,0-12.83,16.1,41.9,41.9,0,0,0-6.49,14.51c-.65,2.89-2.15,5.92-1.09,8.77a48.25,48.25,0,0,0,4.67,10.05,97.81,97.81,0,0,0,12.57,15.34c10.73,10.56,21.61,21,32.84,31,4.57,4.08,9.58,7.94,15.76,9.77,7.11,2.11,13.9,2,20.31-2.08,1.91-1.22,3.78-2.5,5.62-3.82,12.41-8.87,23.32-19.57,35.3-29,7.67-6,15.43-7.88,24.48-4.85,5.75,1.92,9,6.32,10.46,11.89.78,2.93,1.63,5.72,3.51,8.09a85.83,85.83,0,0,1,7.57,11.57c3.72,6.69,7.52,13.43,7.32,21.49-.05,2.09-.12,4.18,0,6.26.5,7.69,2.74,15,4.67,22.44a7.75,7.75,0,0,0,2.76,4.29c5.41,4,11.2,7.47,17.85,8.79,5.12,1,10.25,2.08,15.45,2.79a91.29,91.29,0,0,0,22.53-.1c7.6-.83,15.2-2.06,22.74-3.55,12.17-2.41,19.74-11.81,23.07-22.46C441.72,399.78,440.43,394.48,440.87,389.78Z" transform="translate(-147.17 -175.17)" style="fill:#555253"/><path d="M440.87,389.78c-.44,4.7.85,10-.71,15-3.33,10.65-10.9,20.05-23.07,22.46-7.54,1.49-15.14,2.72-22.74,3.55a91.29,91.29,0,0,1-22.53.1c-5.2-.71-10.33-1.78-15.45-2.79-6.65-1.32-12.44-4.79-17.85-8.79a7.75,7.75,0,0,1-2.76-4.29c-1.93-7.4-4.17-14.75-4.67-22.44-.14-2.08-.07-4.17,0-6.26.2-8.06-3.6-14.8-7.32-21.49a85.83,85.83,0,0,0-7.57-11.57c-1.88-2.37-2.73-5.16-3.51-8.09-1.49-5.57-4.71-10-10.46-11.89-9-3-16.81-1.19-24.48,4.85-12,9.42-22.89,20.12-35.3,29-1.84,1.32-3.71,2.6-5.62,3.82-6.41,4.12-13.2,4.19-20.31,2.08-6.18-1.83-11.19-5.69-15.76-9.77-11.23-10-22.11-20.45-32.84-31a97.81,97.81,0,0,1-12.57-15.34,48.25,48.25,0,0,1-4.67-10.05c-1.06-2.85.44-5.88,1.09-8.77a41.9,41.9,0,0,1,6.49-14.51,154.26,154.26,0,0,1,12.83-16.1C180.5,257,191.29,248.15,202.54,240c15-10.92,30.07-21.79,47-29.59a332.59,332.59,0,0,1,31.47-13c10.68-3.65,21.4-7,32.33-9.82a231.74,231.74,0,0,1,29.49-5.67,188.62,188.62,0,0,1,20.88-1.32c7.52-.06,15-.59,22.54-1a191.05,191.05,0,0,1,26.1.5,225.85,225.85,0,0,1,37.41,6.08c14.61,3.65,29.09,7.78,43.1,13.48,7.08,2.88,14.68,4.49,21.82,7.26,15.95,6.18,31.67,12.88,45.39,23.42,6.55,5,12.76,10.5,19.74,14.92a95,95,0,0,1,23.31,21,39.11,39.11,0,0,0,5,5.33c8.2,7,14.69,15.62,20.86,24.3a63,63,0,0,1,11,25.68,35.61,35.61,0,0,1,.07,10.31c-.36,2.93-2.4,4.94-4.68,6.73a71.27,71.27,0,0,1-11.33,6.9c-3.77,2-7.46,4.06-11.24,6a65.7,65.7,0,0,1-12.28,5,33.82,33.82,0,0,0-11,5,16.28,16.28,0,0,1-4.87,2.31c-10.85,3.32-21.55,7.2-32.61,9.77-8.16,1.89-15.64.06-21.74-6a72.24,72.24,0,0,1-7.06-8.26c-2.83-3.84-6.7-6.6-10.23-9.7-10.53-9.27-23-15.18-35.74-20.68a11.82,11.82,0,0,0-12.69,1.54c-7.9,5.89-14.48,12.81-18.52,21.92-2.33,5.24-3.08,10.91-4.16,16.45C440.6,375.53,440.55,382.44,440.87,389.78ZM353.06,302.5a35.41,35.41,0,0,0-11.56,1.74c-3.37,1-5.86,3.05-6.22,6.74a14.09,14.09,0,0,0,.57,5.36c3.77,12,9.59,22.6,20.76,29.43a38.79,38.79,0,0,0,8.76,3.58c1.58.5,3.52.56,4.38,2.31,1.95,4,5.57,6.12,9.13,8.27,2.95,1.79,3.11,1.74,2.11,5.2-2.62,9-8.1,15.4-17.1,18.56-1,.35-2.4.46-2.75,1.55-.81,2.52-2.71,2.23-4.58,2.08a3.16,3.16,0,0,0-3.65,2.45,19.34,19.34,0,0,0-.58,8.29c.42,4.44,2,6.08,7.26,6.41,5,.3,10,.32,14.94.74,6.13.52,12.26,1.26,18.45,1,6.61-.24,13.2-1,19.83-1a17.35,17.35,0,0,0,7.61-1.7c.95-.47,1.7-1,1.82-2.12.35-3.32.88-6.61.05-10-.47-1.9-1.19-3.36-3.13-4.05-.73-.26-1.72-.44-1.74-1.45-.05-2.73-2-3.44-4.1-3.93a28.54,28.54,0,0,1-11.69-5.47c-4.68-3.84-8.79-8.16-8.88-14.83a3,3,0,0,1,1.46-2.88c3.46-2.46,7.48-4.12,10.45-7.27a31.13,31.13,0,0,1,8.53-6.21c13.3-6.85,20.38-18.59,25.14-32.06,1.66-4.67-1.6-9.43-6.52-10.41-3.29-.66-6.63-.3-10.11-.6,0-1,0-2,0-3-.15-3.25-1.61-4.71-4.9-4.91-.28,0-.55,0-.82,0l-54.4.06a9.69,9.69,0,0,0-1.61.19C353.63,295.75,353.46,296,353.06,302.5Zm-68.3-34c.6-.32,1-.55,1.38-.75a82.1,82.1,0,0,1,11.72-4.94c3.26-1.07,3.91-2.35,2.93-5.44-.65-2.07-1.35-4.12-2.17-6.12-.95-2.32-1.55-2.45-4-1.65-4.71,1.55-9.46,3-14.16,4.55-1.22.41-1.66.12-2.22-1-2.39-4.87-4.29-9.94-6.31-15a1.76,1.76,0,0,1,1-2.61c2.82-1.43,5.54-3,8.66-3.8a53.9,53.9,0,0,0,6.41-2.21c2.52-1,2.9-1.74,2.42-4.36a26.69,26.69,0,0,0-2.82-7.3c-.69-1.35-1.74-1.51-3.2-1.07a251.38,251.38,0,0,0-28.58,10.86c-1.75.76-2.2,1.75-1.52,3.61,1.48,4.08,3.41,8,5,12,5.08,12.83,9.61,25.88,15.19,38.52,2.84,6.43,5.06,13.13,7.6,19.69,1.25,3.22,2.35,3.77,5.58,3a25.83,25.83,0,0,0,2.84-.87c4.22-1.58,8.41-3.26,12.66-4.78,3.75-1.33,7.42-2.87,11-4.5,2.49-1.12,2.74-1.9,1.89-4.52-.47-1.45-1-2.89-1.5-4.34-2-5.95-2.72-6.24-8.54-3.88-3.93,1.59-7.93,3-11.91,4.5-1,.38-2,.7-2.64-.77A131.73,131.73,0,0,1,284.76,268.49ZM587,316.63c3.83-7.06,7.29-14.13,12.09-20.42a3.6,3.6,0,0,0,0-4.52,43.72,43.72,0,0,0-4.73-5.94c-2-2.1-2.53-2-3.93.47-6.84,12.26-14.46,24-22.06,35.83a11.64,11.64,0,0,1-2.39,2.93c-3.17,2.57-6.32,5.16-9.48,7.74-4.56,3.73-9.15,7.43-13.67,11.21-2.18,1.82-2.31,2.66-1,5.15a43.22,43.22,0,0,0,2.49,3.88c2.06,3,2.69,3.07,5.57.74,4.44-3.6,8.89-7.19,13.64-10.36s8.85-6.94,14-9.28c8.73-4,18-6.51,27.12-9.2,4-1.17,7.9-2.5,11.81-3.87,2.85-1,3.33-2.66,1.53-5.1-1.56-2.11-3.36-4-4.9-6.17-1.28-1.79-2.68-2.08-4.67-1.23-5.48,2.34-11,4.57-16.52,6.8C590.45,315.91,589,317,587,316.63Zm-67.29,8.79a2.94,2.94,0,0,0,1.1,2.36,29.3,29.3,0,0,0,6.63,5.15c1.95,1.17,3.15.91,4.31-1s2.26-4.13,3.28-6.24c5.22-10.73,9-22.07,13.74-33,4.68-10.66,9.67-21.19,14-32,.94-2.37.77-4.17-1.29-5.73-.5-.38-.92-.87-1.39-1.3-4.16-3.75-4.07-3.63-8.25-.28-13,10.39-25.05,21.78-37.39,32.88-6.74,6.07-13.26,12.37-20,18.44-2,1.78-1.89,3,.17,4.67a45.45,45.45,0,0,0,4.47,3.08c2.77,1.77,3.49,1.72,6-.43s5-4.25,7.33-6.5c1.41-1.34,2.61-1.56,4.23-.34,2.39,1.78,4.87,3.46,7.41,5,1.25.78,1.12,1.5.62,2.66-1.52,3.47-2.91,7-4.36,10.5A4.32,4.32,0,0,0,519.74,325.42ZM185.1,298.12c2.07-2.53,3.78-5.19,6-7.44,1.72-1.74,3.45-3.47,5.13-5.25a3.1,3.1,0,0,0,.48-4.2,30.49,30.49,0,0,0-5.31-5.81,2.64,2.64,0,0,0-4.23.49,24.64,24.64,0,0,1-3,3.16c-6,5.5-12,11.1-17,17.56-1.19,1.51-1.41,2.64.2,4.15,12.8,11.94,25.49,24,38.28,36,4.7,4.39,9.17,9,14.13,13.16,2.4,2,2.95,2,5.39.09a26,26,0,0,0,4.31-4.88c1.85-2.38,1.81-2.91-.31-5.05-3.5-3.55-7.11-7-10.43-10.72-2.81-3.15-5.86-6.09-8.74-9.07a28.81,28.81,0,0,1,6.32-8,25.55,25.55,0,0,0,2.42-2.57,3.46,3.46,0,0,0-.12-5.1c-1.54-1.66-3.14-3.27-4.76-4.86a2.91,2.91,0,0,0-3.95-.37,15.4,15.4,0,0,0-4.54,4.23,36.37,36.37,0,0,1-6.46,7.05A100.31,100.31,0,0,1,185.1,298.12Zm153.31-10.69a149.51,149.51,0,0,0,23.79-2.21c3-.5,3.36-1.05,3.39-4.14a51.77,51.77,0,0,0-.42-7c-.38-3-1.28-3.9-4.23-3.39-5.64,1-11.39.65-17.05,1.32-1.35.15-2-.37-2.16-1.74-.15-1.71-.51-3.42-.53-5.13a146.4,146.4,0,0,0-2.83-27.77A262.19,262.19,0,0,1,334.65,208c-.28-3.27-1.76-4.27-5.11-3.79a31.8,31.8,0,0,1-3.51.33c-6.91.18-5.86.92-5.55,6.54.37,6.5,1.12,13,1.48,19.47.37,6.87,1.29,13.69,1.92,20.53.56,6.13,2.13,12.1,2.56,18.26.35,5.13,1.36,10.21,2.11,15.31a2.87,2.87,0,0,0,3.32,2.79C334,287.36,336.23,287.43,338.41,287.43Zm78.21-43.66c-.39-4.27.21-8.51.28-12.77.08-5.05.88-10.07-.08-15.15-1.6-8.55-6.5-14.21-14.95-15.86-7.37-1.43-14.92-1.56-22.44-1.48-1.64,0-1.79,1.11-2,2.37-1.13,8.35-1.2,16.78-1.35,25.17-.31,16.67-1.17,33.33-.73,50,0,1.64.3,3.24.49,4.86a2.06,2.06,0,0,0,2.13,2c6.22.44,12.38,1.49,18.67,1.16,10.42-.56,17.63-7.21,19.15-17.58A123.51,123.51,0,0,0,416.62,243.77Zm54.54,55c1.13-.21,2.74.05,4.37-.44,7-2.12,11.07-7.16,14.07-13.42a151.24,151.24,0,0,0,6.15-15.87c3.34-9.52,7.31-18.82,10.07-28.54,2.11-7.44.08-13.52-5.94-17.65a77.09,77.09,0,0,0-23.53-10.82c-2-.54-2.72.15-3.45,1.84-2.2,5.14-3.73,10.52-5.76,15.72-3.84,9.83-8.7,19.25-11.49,29.48-2.57,9.4-6.38,18.39-9,27.78-.86,3.1-.81,3.44,2,4.94a86.61,86.61,0,0,0,11.64,5.1A27.49,27.49,0,0,0,471.16,298.8ZM267.61,312.54c0-1.38-1.24-2.48-2.14-3.67-12.17-16-23.21-32.78-35.05-49-2.18-3-4.32-6-6.59-9-1-1.35-2.43-2.25-4.23-1.16-2,1.22-4.06,2.38-6,3.7-2.8,1.91-2.77,3-.85,5.72,5.74,8,12.09,15.55,17.25,24,4.34,7.09,8.26,14.46,13.7,20.83,3.94,4.61,7.72,9.35,11.62,14,1.21,1.43,2.63,2.57,4.72,1.7,2.73-1.14,4.79-3.19,7-5.08C267.55,314.14,267.58,313.49,267.61,312.54ZM439.94,245.8a6.34,6.34,0,0,0,6.07-6.11c-.06-2.41-3.3-5-6.24-5s-6.07,3.33-6.11,6.52C433.63,243.87,436.33,245.84,439.94,245.8Z" transform="translate(-147.17 -175.17)" style="fill:#fefefe"/><path d="M353.06,302.5c.4-6.55.57-6.75,6.91-7.87a9.69,9.69,0,0,1,1.61-.19l54.4-.06c.27,0,.54,0,.82,0,3.29.2,4.75,1.66,4.9,4.91,0,1,0,2,0,3,3.48.3,6.82-.06,10.11.6,4.92,1,8.18,5.74,6.52,10.41-4.76,13.47-11.84,25.21-25.14,32.06a31.13,31.13,0,0,0-8.53,6.21c-3,3.15-7,4.81-10.45,7.27a3,3,0,0,0-1.46,2.88c.09,6.67,4.2,11,8.88,14.83a28.54,28.54,0,0,0,11.69,5.47c2.07.49,4.05,1.2,4.1,3.93,0,1,1,1.19,1.74,1.45,1.94.69,2.66,2.15,3.13,4.05.83,3.36.3,6.65-.05,10-.12,1.15-.87,1.65-1.82,2.12a17.35,17.35,0,0,1-7.61,1.7c-6.63,0-13.22.72-19.83,1-6.19.23-12.32-.51-18.45-1-5-.42-10-.44-14.94-.74-5.26-.33-6.84-2-7.26-6.41a19.34,19.34,0,0,1,.58-8.29,3.16,3.16,0,0,1,3.65-2.45c1.87.15,3.77.44,4.58-2.08.35-1.09,1.75-1.2,2.75-1.55,9-3.16,14.48-9.56,17.1-18.56,1-3.46.84-3.41-2.11-5.2-3.56-2.15-7.18-4.28-9.13-8.27-.86-1.75-2.8-1.81-4.38-2.31a38.79,38.79,0,0,1-8.76-3.58c-11.17-6.83-17-17.42-20.76-29.43a14.09,14.09,0,0,1-.57-5.36c.36-3.69,2.85-5.77,6.22-6.74A35.41,35.41,0,0,1,353.06,302.5Zm38,100.8c5.74.34,11.95-.84,18.22-.69a64.06,64.06,0,0,0,7.05-.49c1.5-.13,3-.5,3.18-2.28a22,22,0,0,0,.18-6.74c-.35-2-1-3.21-3-3.5-.95-.14-2-.65-1.9-1.63.35-3.06-1.9-3.16-3.86-3.72a30.63,30.63,0,0,1-19.05-14.7,17,17,0,0,1-2.05-8.07,5.23,5.23,0,0,1,2.49-4.78c3.42-2.36,7.38-4,10.29-7a37.39,37.39,0,0,1,9.88-7.12c12.26-6.51,18.7-17.52,23.2-30,1.16-3.22-1.15-6.29-4.41-6.88a45.85,45.85,0,0,0-9.5-.4c-2,.05-2.89-.74-2.77-2.71,0-.55,0-1.09,0-1.64-.06-3.36-.42-3.73-3.75-3.81-.55,0-1.09,0-1.64,0-15.61.05-31.22-.34-46.83.55-2.35.13-4.69-.38-7.06-.07-3.16.4-3.33.51-3.42,3.54s-1,4.1-4,4.12a37.8,37.8,0,0,0-10.13,1.78c-2.93.83-4,2.59-3.79,5.71a13.23,13.23,0,0,0,.44,3.22c4.77,14.13,11.75,26.32,27.5,30.64a10.6,10.6,0,0,1,7,5,15.17,15.17,0,0,0,9,6.57c1.87.54,2.61,1.45,2.33,3.28-1.84,11.71-7.74,20.3-19.06,24.69-1.31.51-2.48.9-2.71,2.61-.16,1.11-1.28,1.42-2.35,1.44a29.82,29.82,0,0,1-3,0c-1.7-.17-2.31.67-2.29,2.21,0,1.82-.05,3.63.05,5.44.16,3,1,3.69,4.07,3.81,2.35.09,4.71.37,7.06.35C374.44,401.92,382.43,403.54,391,403.3Z" transform="translate(-147.17 -175.17)" style="fill:#555253"/><path d="M284.76,268.49a131.73,131.73,0,0,0,6.75,16.78c.68,1.47,1.63,1.15,2.64.77,4-1.47,8-2.91,11.91-4.5,5.82-2.36,6.54-2.07,8.54,3.88.49,1.45,1,2.89,1.5,4.34.85,2.62.6,3.4-1.89,4.52-3.62,1.63-7.29,3.17-11,4.5-4.25,1.52-8.44,3.2-12.66,4.78a25.83,25.83,0,0,1-2.84.87c-3.23.81-4.33.26-5.58-3-2.54-6.56-4.76-13.26-7.6-19.69-5.58-12.64-10.11-25.69-15.19-38.52-1.59-4-3.52-7.91-5-12-.68-1.86-.23-2.85,1.52-3.61A251.38,251.38,0,0,1,284.4,216.8c1.46-.44,2.51-.28,3.2,1.07a26.69,26.69,0,0,1,2.82,7.3c.48,2.62.1,3.36-2.42,4.36a53.9,53.9,0,0,1-6.41,2.21c-3.12.79-5.84,2.37-8.66,3.8a1.76,1.76,0,0,0-1,2.61c2,5,3.92,10.1,6.31,15,.56,1.14,1,1.43,2.22,1,4.7-1.57,9.45-3,14.16-4.55,2.42-.8,3-.67,4,1.65.82,2,1.52,4,2.17,6.12,1,3.09.33,4.37-2.93,5.44a82.1,82.1,0,0,0-11.72,4.94C285.74,267.94,285.36,268.17,284.76,268.49Zm-6-10.91A2.18,2.18,0,0,1,276.4,256c-2.61-5.77-5.14-11.57-7.27-17.54-1.07-3-.76-3.55,2-5.23a60.08,60.08,0,0,1,12.22-5.12c5-1.68,5.12-2.14,2.74-7-.69-1.4-1.52-1.57-2.83-1.15-8.36,2.69-16.49,6-24.58,9.39-1.59.67-1.62,1.44-1.06,2.92,1.32,3.48,3.13,6.74,4.42,10.21,5.14,13.81,10.44,27.55,16.24,41.11,2.27,5.31,4.14,10.8,6.09,16.24.67,1.84,1.62,2.42,3.47,1.6,1.48-.67,3.06-1.11,4.57-1.72,6.37-2.58,13-4.56,19.21-7.46,1.1-.51,2-.88,1.54-2.32-.66-1.88-1.33-3.75-2-5.64-.35-1.05-.89-1.52-2-1-.73.34-1.51.59-2.28.87-4.58,1.66-9.05,3.66-13.76,5-1.31.37-2.55.6-3.28-.9A133.89,133.89,0,0,1,282,269.05a2.36,2.36,0,0,1,1.51-3.25c3.38-1.52,6.72-3.14,10.17-4.51,5.21-2.06,5.2-2,3.2-7.18-.58-1.49-1.26-1.86-2.84-1.32-4.28,1.48-8.62,2.76-12.94,4.11C280.29,257.15,279.51,257.36,278.73,257.58Z" transform="translate(-147.17 -175.17)" style="fill:#555253"/><path d="M587,316.63c2,.36,3.42-.72,5-1.34,5.52-2.23,11-4.46,16.52-6.8,2-.85,3.39-.56,4.67,1.23,1.54,2.13,3.34,4.06,4.9,6.17,1.8,2.44,1.32,4.1-1.53,5.1-3.91,1.37-7.84,2.7-11.81,3.87-9.17,2.69-18.39,5.22-27.12,9.2-5.15,2.34-9.33,6.18-14,9.28s-9.2,6.76-13.64,10.36c-2.88,2.33-3.51,2.22-5.57-.74a43.22,43.22,0,0,1-2.49-3.88c-1.35-2.49-1.22-3.33,1-5.15,4.52-3.78,9.11-7.48,13.67-11.21,3.16-2.58,6.31-5.17,9.48-7.74a11.64,11.64,0,0,0,2.39-2.93c7.6-11.79,15.22-23.57,22.06-35.83,1.4-2.51,2-2.57,3.93-.47a43.72,43.72,0,0,1,4.73,5.94,3.6,3.6,0,0,1,0,4.52C594.32,302.5,590.86,309.57,587,316.63ZM616.16,318c-1.43-1.79-2.77-3.27-3.87-4.91-1.22-1.8-2.47-2.13-4.55-1.25-7.48,3.19-15,6.17-22.59,9.22-1.16.46-2.48,1.24-3.49,0s0-2.27.73-3.17c5.44-7,8.33-15.67,14-22.59.5-.61,1-1.29.32-2.19a22.77,22.77,0,0,0-4.07-4.84c-5.74,10.21-11.83,19.95-18.11,29.56-2.41,3.69-4.4,7.66-8,10.5-6.29,4.89-12.43,10-18.55,15.08-4.45,3.69-4.4,3.75-.78,8.4,0,.06.15.08.31.17a8.23,8.23,0,0,0,1.08-.7c6.11-5.14,12.83-9.46,19.14-14.32,6.08-4.69,13-7.47,20.09-9.89C597.06,323.88,606.67,321.63,616.16,318Z" transform="translate(-147.17 -175.17)" style="fill:#555253"/><path d="M519.74,325.42a4.32,4.32,0,0,1,.52-2.09c1.45-3.51,2.84-7,4.36-10.5.5-1.16.63-1.88-.62-2.66-2.54-1.58-5-3.26-7.41-5-1.62-1.22-2.82-1-4.23.34-2.37,2.25-4.86,4.36-7.33,6.5s-3.2,2.2-6,.43a45.45,45.45,0,0,1-4.47-3.08c-2.06-1.69-2.15-2.89-.17-4.67,6.75-6.07,13.27-12.37,20-18.44,12.34-11.1,24.43-22.49,37.39-32.88,4.18-3.35,4.09-3.47,8.25.28.47.43.89.92,1.39,1.3,2.06,1.56,2.23,3.36,1.29,5.73-4.28,10.84-9.27,21.37-14,32-4.79,10.91-8.52,22.25-13.74,33-1,2.11-2.08,4.22-3.28,6.24s-2.36,2.21-4.31,1a29.3,29.3,0,0,1-6.63-5.15A2.94,2.94,0,0,1,519.74,325.42Zm9.43,5a22.49,22.49,0,0,0,2.74-4.77c4.15-8.64,7.73-17.53,11.14-26.49,4.82-12.68,11.41-24.61,16.06-37.37,1.56-4.28,1.65-4.2-1.92-7a1.89,1.89,0,0,0-2.82,0c-8.71,7.11-17,14.73-25.44,22.11-9.43,8.22-18.35,17-27.64,25.38-1.66,1.49-3.63,2.68-4.82,4.66.54,1.26,1.71,1.64,2.69,2.25,2.94,1.82,2.92,1.79,5.42-.5q3.32-3,6.71-5.95c2.38-2,3.12-2.05,5.77-.54a99.8,99.8,0,0,1,9,6.07c2.3,1.66,2.48,2.64,1.32,5.32-1.46,3.4-2.85,6.84-4.26,10.26-.37.91-.82,1.8.25,2.66A24.17,24.17,0,0,0,529.17,330.45Z" transform="translate(-147.17 -175.17)" style="fill:#555253"/><path d="M185.1,298.12a100.31,100.31,0,0,0,13.84,12.48,36.37,36.37,0,0,0,6.46-7.05,15.4,15.4,0,0,1,4.54-4.23,2.91,2.91,0,0,1,3.95.37c1.62,1.59,3.22,3.2,4.76,4.86a3.46,3.46,0,0,1,.12,5.1,25.55,25.55,0,0,1-2.42,2.57,28.81,28.81,0,0,0-6.32,8c2.88,3,5.93,5.92,8.74,9.07,3.32,3.73,6.93,7.17,10.43,10.72,2.12,2.14,2.16,2.67.31,5.05A26,26,0,0,1,225.2,350c-2.44,1.9-3,1.9-5.39-.09-5-4.11-9.43-8.77-14.13-13.16-12.79-12-25.48-24-38.28-36-1.61-1.51-1.39-2.64-.2-4.15,5-6.46,11-12.06,17-17.56a24.64,24.64,0,0,0,3-3.16,2.64,2.64,0,0,1,4.23-.49,30.49,30.49,0,0,1,5.31,5.81,3.1,3.1,0,0,1-.48,4.2c-1.68,1.78-3.41,3.51-5.13,5.25C188.88,292.93,187.17,295.59,185.1,298.12Zm42.83,44.48c-7-6.25-12.65-13.48-19.39-19.69-2.12-2-2.11-2.45-.62-4.83a41.09,41.09,0,0,1,6-7.38c4-3.89,3.81-3.11,0-7-2.21-2.27-2.77-2.25-5,.07a12.19,12.19,0,0,0-1.17,1.49,53.6,53.6,0,0,1-6.78,7.42c-.86.83-1.78,1.64-3.08.69a96.19,96.19,0,0,1-15.27-13.88,2,2,0,0,1,.06-2.91c2.64-3.11,5-6.47,7.87-9.37,4.65-4.63,4.6-4.69-.33-9.16a2.27,2.27,0,0,0-.64-.29c-6.89,6.84-14.43,12.94-20.22,20.87,11.13,10.3,21.55,20.91,32.66,30.82,6.42,5.73,12.44,11.91,18.84,17.69,1.47,1.34,2.38,1.24,3.5-.17S226.63,344.16,227.93,342.6Z" transform="translate(-147.17 -175.17)" style="fill:#555253"/><path d="M338.41,287.43c-2.18,0-4.37-.07-6.54,0a2.87,2.87,0,0,1-3.32-2.79c-.75-5.1-1.76-10.18-2.11-15.31-.43-6.16-2-12.13-2.56-18.26-.63-6.84-1.55-13.66-1.92-20.53-.36-6.5-1.11-13-1.48-19.47-.31-5.62-1.36-6.36,5.55-6.54a31.8,31.8,0,0,0,3.51-.33c3.35-.48,4.83.52,5.11,3.79a262.19,262.19,0,0,0,3.72,29.32,146.4,146.4,0,0,1,2.83,27.77c0,1.71.38,3.42.53,5.13.12,1.37.81,1.89,2.16,1.74,5.66-.67,11.41-.35,17.05-1.32,2.95-.51,3.85.36,4.23,3.39a51.77,51.77,0,0,1,.42,7c0,3.09-.43,3.64-3.39,4.14A149.51,149.51,0,0,1,338.41,287.43Zm23.66-14.17c-6.31,1.26-12.59.88-18.8,1.48-3.21.31-3.56,0-4.09-3.25a65.47,65.47,0,0,1-.82-8.63,115.09,115.09,0,0,0-1.06-14.6c-.88-5.61-2-11.2-2.77-16.83-1-7.24-2.33-14.46-2.33-21.81a6.36,6.36,0,0,0-.42-1.85,1,1,0,0,0-1.25-.82c-2.36.68-4.86.05-7.15.65a3.58,3.58,0,0,0-.22,2.25c.71,9.55,1.33,19.11,2.18,28.65.5,5.57,1.12,11.14,2,16.68.69,4.64,1.59,9.24,1.93,13.95s1.3,9.11,1.88,13.68c.19,1.52.87,1.89,2.3,1.89a181.17,181.17,0,0,0,26.53-1.86c2.92-.42,2.86-.48,2.87-3.59A26.35,26.35,0,0,0,362.07,273.26Z" transform="translate(-147.17 -175.17)" style="fill:#555253"/><path d="M416.62,243.77a123.51,123.51,0,0,1-.79,22.74c-1.52,10.37-8.73,17-19.15,17.58-6.29.33-12.45-.72-18.67-1.16a2.06,2.06,0,0,1-2.13-2c-.19-1.62-.45-3.22-.49-4.86-.44-16.67.42-33.33.73-50,.15-8.39.22-16.82,1.35-25.17.17-1.26.32-2.35,2-2.37,7.52-.08,15.07.05,22.44,1.48,8.45,1.65,13.35,7.31,14.95,15.86,1,5.08.16,10.1.08,15.15C416.83,235.26,416.23,239.5,416.62,243.77Zm-36.1-42.36c-1.83,8.42-1.1,16.79-1.67,25.08-.59,8.57-.15,17.19-.58,25.79-.39,7.78-.08,15.58-.08,23.38a14.66,14.66,0,0,0,.35,3.23c.18.8.45,1.24,1.36,1.35,5.39.68,10.77,1.38,16.22,1.05,9.49-.58,14.65-5.36,16.59-13.28A50.36,50.36,0,0,0,414,257.55c.31-9.13-.71-18.26.09-27.39.39-4.41.76-8.8.05-13.25-1.17-7.44-5.42-12.42-12.64-14.23a27.83,27.83,0,0,0-4.29-.57C391.69,201.63,386.21,201,380.52,201.41Z" transform="translate(-147.17 -175.17)" style="fill:#555253"/><path d="M471.16,298.8a27.49,27.49,0,0,1-10.81-1.88,86.61,86.61,0,0,1-11.64-5.1c-2.85-1.5-2.9-1.84-2-4.94,2.6-9.39,6.41-18.38,9-27.78,2.79-10.23,7.65-19.65,11.49-29.48,2-5.2,3.56-10.58,5.76-15.72.73-1.69,1.46-2.38,3.45-1.84a77.09,77.09,0,0,1,23.53,10.82c6,4.13,8.05,10.21,5.94,17.65-2.76,9.72-6.73,19-10.07,28.54a151.24,151.24,0,0,1-6.15,15.87c-3,6.26-7.09,11.3-14.07,13.42C473.9,298.85,472.29,298.59,471.16,298.8ZM470.4,296c.91,0,1.82,0,2.72,0a5.6,5.6,0,0,0,1.06-.24c6-1.58,9.65-5.76,12.37-11,2.79-5.41,4.66-11.19,6.66-16.9,3.23-9.21,7-18.23,9.8-27.58,2.17-7.16-.56-12.69-6.12-16a93.31,93.31,0,0,0-18.65-8.75c-2-.65-3-.37-3.65,1.64-1.24,3.78-2.52,7.55-4,11.24-5.25,13.18-11.09,26.12-14.89,39.85-1.73,6.27-4,12.38-6.17,18.52-.59,1.67-.07,2.52,1.35,3.17,2.23,1,4.41,2.11,6.68,3C461.7,294.49,465.84,296.11,470.4,296Z" transform="translate(-147.17 -175.17)" style="fill:#555253"/><path d="M267.61,312.54c0,.95-.06,1.6-.59,2.06-2.19,1.89-4.25,3.94-7,5.08-2.09.87-3.51-.27-4.72-1.7-3.9-4.64-7.68-9.38-11.62-14-5.44-6.37-9.36-13.74-13.7-20.83-5.16-8.43-11.51-16-17.25-24-1.92-2.68-1.95-3.81.85-5.72,1.94-1.32,4-2.48,6-3.7,1.8-1.09,3.19-.19,4.23,1.16,2.27,2.93,4.41,6,6.59,9,11.84,16.21,22.88,33,35.05,49C266.37,310.06,267.57,311.16,267.61,312.54Zm-2.94.14a9.88,9.88,0,0,0-.75-1.26c-11.28-14.3-21-29.76-31.88-44.32-3.21-4.27-6.16-8.74-9.28-13.08-.53-.74-1-2.1-2.25-1.38-2,1.19-4.29,2-5.86,3.67,0,.85.57,1.23.91,1.74,5.59,8.25,12.18,15.77,17.31,24.35,3.4,5.66,6.49,11.55,10.61,16.75,3.48,4.4,7.19,8.62,10.76,12.94,4.84,5.86,3.26,6.83,10.28,1C264.57,313.05,264.58,312.94,264.67,312.68Z" transform="translate(-147.17 -175.17)" style="fill:#555253"/><path d="M439.94,245.8c-3.61,0-6.31-1.93-6.28-4.59,0-3.19,3.15-6.52,6.11-6.52s6.18,2.59,6.24,5A6.34,6.34,0,0,1,439.94,245.8Zm-.53-3c2.33,0,3.62-1,3.56-2.67-.08-2-1.59-2.24-3-2.36a3.48,3.48,0,0,0-3.38,3.24C436.65,242.93,438.39,242.49,439.41,242.76Z" transform="translate(-147.17 -175.17)" style="fill:#555253"/><path d="M391,403.3c-8.61.24-16.6-1.38-24.68-1.32-2.35,0-4.71-.26-7.06-.35-3.08-.12-3.91-.83-4.07-3.81-.1-1.81,0-3.62-.05-5.44,0-1.54.59-2.38,2.29-2.21a29.82,29.82,0,0,0,3,0c1.07,0,2.19-.33,2.35-1.44.23-1.71,1.4-2.1,2.71-2.61,11.32-4.39,17.22-13,19.06-24.69.28-1.83-.46-2.74-2.33-3.28a15.17,15.17,0,0,1-9-6.57,10.6,10.6,0,0,0-7-5c-15.75-4.32-22.73-16.51-27.5-30.64a13.23,13.23,0,0,1-.44-3.22c-.21-3.12.86-4.88,3.79-5.71a37.8,37.8,0,0,1,10.13-1.78c3,0,3.92-1,4-4.12s.26-3.14,3.42-3.54c2.37-.31,4.71.2,7.06.07,15.61-.89,31.22-.5,46.83-.55.55,0,1.09,0,1.64,0,3.33.08,3.69.45,3.75,3.81,0,.55.05,1.09,0,1.64-.12,2,.77,2.76,2.77,2.71a45.85,45.85,0,0,1,9.5.4c3.26.59,5.57,3.66,4.41,6.88-4.5,12.45-10.94,23.46-23.2,30a37.39,37.39,0,0,0-9.88,7.12c-2.91,3.05-6.87,4.66-10.29,7a5.23,5.23,0,0,0-2.49,4.78,17,17,0,0,0,2.05,8.07,30.63,30.63,0,0,0,19.05,14.7c2,.56,4.21.66,3.86,3.72-.12,1,.95,1.49,1.9,1.63,2.07.29,2.69,1.52,3,3.5a22,22,0,0,1-.18,6.74c-.22,1.78-1.68,2.15-3.18,2.28a64.06,64.06,0,0,1-7.05.49C403,402.46,396.78,403.64,391,403.3ZM353,309c-1.88.22-3.79.32-5.64.69-3.61.73-4.42,2.21-3.87,5.78a32.66,32.66,0,0,0,4.87,11.95c3.13,5.15,6.14,10.58,12.18,13,1.57.63,3.21,2.55,4.91,1.05,1.91-1.68.07-3.59-.66-5.14-3.71-7.95-7.1-16-8.46-24.74C356,309.66,355,308.77,353,309Zm56.08,28.48c.05.67-.28,1.92,1,2.48a2.94,2.94,0,0,0,3.05-.58c.5-.38,1-.79,1.49-1.17a42.34,42.34,0,0,0,7.57-7.74,48.07,48.07,0,0,0,8-14.66c1.15-3.42-.95-6.12-4.58-6.22-1.18,0-2.36.08-3.53,0-1.86-.18-2.84.62-3.29,2.41-1.79,7.14-5.32,13.58-8.37,20.2A11.2,11.2,0,0,0,409.09,337.52Z" transform="translate(-147.17 -175.17)" style="fill:#f6e84a"/><path d="M278.73,257.58c.78-.22,1.56-.43,2.34-.68,4.32-1.35,8.66-2.63,12.94-4.11,1.58-.54,2.26-.17,2.84,1.32,2,5.22,2,5.12-3.2,7.18-3.45,1.37-6.79,3-10.17,4.51a2.36,2.36,0,0,0-1.51,3.25,133.89,133.89,0,0,0,7.93,19.29c.73,1.5,2,1.27,3.28.9,4.71-1.33,9.18-3.33,13.76-5,.77-.28,1.55-.53,2.28-.87,1.13-.54,1.67-.07,2,1,.63,1.89,1.3,3.76,2,5.64.49,1.44-.44,1.81-1.54,2.32-6.24,2.9-12.84,4.88-19.21,7.46-1.51.61-3.09,1.05-4.57,1.72-1.85.82-2.8.24-3.47-1.6-2-5.44-3.82-10.93-6.09-16.24-5.8-13.56-11.1-27.3-16.24-41.11-1.29-3.47-3.1-6.73-4.42-10.21-.56-1.48-.53-2.25,1.06-2.92,8.09-3.41,16.22-6.7,24.58-9.39,1.31-.42,2.14-.25,2.83,1.15,2.38,4.82,2.29,5.28-2.74,7a60.08,60.08,0,0,0-12.22,5.12c-2.8,1.68-3.11,2.22-2,5.23,2.13,6,4.66,11.77,7.27,17.54A2.18,2.18,0,0,0,278.73,257.58Z" transform="translate(-147.17 -175.17)" style="fill:#f95184"/><path d="M616.16,318c-9.49,3.63-19.1,5.88-28.41,9.05-7.12,2.42-14,5.2-20.09,9.89-6.31,4.86-13,9.18-19.14,14.32a8.23,8.23,0,0,1-1.08.7c-.16-.09-.26-.11-.31-.17-3.62-4.65-3.67-4.71.78-8.4,6.12-5.1,12.26-10.19,18.55-15.08,3.64-2.84,5.63-6.81,8-10.5,6.28-9.61,12.37-19.35,18.11-29.56a22.77,22.77,0,0,1,4.07,4.84c.65.9.18,1.58-.32,2.19-5.64,6.92-8.53,15.55-14,22.59-.7.9-1.66,2-.73,3.17s2.33.48,3.49,0c7.54-3.05,15.11-6,22.59-9.22,2.08-.88,3.33-.55,4.55,1.25C613.39,314.73,614.73,316.21,616.16,318Z" transform="translate(-147.17 -175.17)" style="fill:#f95184"/><path d="M529.17,330.45a24.17,24.17,0,0,1-5.8-4c-1.07-.86-.62-1.75-.25-2.66,1.41-3.42,2.8-6.86,4.26-10.26,1.16-2.68,1-3.66-1.32-5.32a99.8,99.8,0,0,0-9-6.07c-2.65-1.51-3.39-1.5-5.77.54s-4.5,3.93-6.71,5.95c-2.5,2.29-2.48,2.32-5.42.5-1-.61-2.15-1-2.69-2.25,1.19-2,3.16-3.17,4.82-4.66,9.29-8.38,18.21-17.16,27.64-25.38,8.47-7.38,16.73-15,25.44-22.11a1.89,1.89,0,0,1,2.82,0c3.57,2.83,3.48,2.75,1.92,7-4.65,12.76-11.24,24.69-16.06,37.37-3.41,9-7,17.85-11.14,26.49A22.49,22.49,0,0,1,529.17,330.45Zm16.31-55.2c0-.87-.14-1.47-.78-1.83a1.41,1.41,0,0,0-1.74.29c-.62.53-1.21,1.09-1.79,1.66-4.59,4.49-8.95,9.22-13.87,13.37a25.18,25.18,0,0,0-3,2.76c-1.72,2-1.58,3,.67,4.27,1.74,1,3.34,2.14,5,3.24,3.26,2.15,3.7,2,5.37-1.55,3.24-6.95,5.84-14.2,9.65-20.89A6.89,6.89,0,0,0,545.48,275.25Z" transform="translate(-147.17 -175.17)" style="fill:#f95184"/><path d="M227.93,342.6c-1.3,1.56-2.46,2.93-3.58,4.34s-2,1.51-3.5.17c-6.4-5.78-12.42-12-18.84-17.69-11.11-9.91-21.53-20.52-32.66-30.82,5.79-7.93,13.33-14,20.22-20.87a2.27,2.27,0,0,1,.64.29c4.93,4.47,5,4.53.33,9.16-2.91,2.9-5.23,6.26-7.87,9.37a2,2,0,0,0-.06,2.91,96.19,96.19,0,0,0,15.27,13.88c1.3,1,2.22.14,3.08-.69a53.6,53.6,0,0,0,6.78-7.42,12.19,12.19,0,0,1,1.17-1.49c2.21-2.32,2.77-2.34,5-.07,3.8,3.92,3.94,3.14,0,7a41.09,41.09,0,0,0-6,7.38c-1.49,2.38-1.5,2.87.62,4.83C215.28,329.12,221,336.35,227.93,342.6Z" transform="translate(-147.17 -175.17)" style="fill:#f95184"/><path d="M362.07,273.26a26.35,26.35,0,0,1,.73,6c0,3.11.05,3.17-2.87,3.59a181.17,181.17,0,0,1-26.53,1.86c-1.43,0-2.11-.37-2.3-1.89-.58-4.57-1.55-9.1-1.88-13.68s-1.24-9.31-1.93-13.95c-.83-5.54-1.45-11.11-2-16.68-.85-9.54-1.47-19.1-2.18-28.65a3.58,3.58,0,0,1,.22-2.25c2.29-.6,4.79,0,7.15-.65a1,1,0,0,1,1.25.82,6.36,6.36,0,0,1,.42,1.85c0,7.35,1.32,14.57,2.33,21.81.79,5.63,1.89,11.22,2.77,16.83a115.09,115.09,0,0,1,1.06,14.6,65.47,65.47,0,0,0,.82,8.63c.53,3.24.88,3.56,4.09,3.25C349.48,274.14,355.76,274.52,362.07,273.26Z" transform="translate(-147.17 -175.17)" style="fill:#f95184"/><path d="M380.52,201.41c5.69-.4,11.17.22,16.66.7a27.83,27.83,0,0,1,4.29.57c7.22,1.81,11.47,6.79,12.64,14.23.71,4.45.34,8.84-.05,13.25-.8,9.13.22,18.26-.09,27.39A50.36,50.36,0,0,1,412.71,268c-1.94,7.92-7.1,12.7-16.59,13.28-5.45.33-10.83-.37-16.22-1.05-.91-.11-1.18-.55-1.36-1.35a14.66,14.66,0,0,1-.35-3.23c0-7.8-.31-15.6.08-23.38.43-8.6,0-17.22.58-25.79C379.42,218.2,378.69,209.83,380.52,201.41Zm24.87,35.1c0-5.53.08-11.06,0-16.59-.08-4.65-2.08-7.15-6.52-8.49a21.76,21.76,0,0,0-7.23-.89c-1.46.05-2.16.66-2.13,2.15a33.22,33.22,0,0,1-.08,4.89,249.6,249.6,0,0,0-2,29.17c-.06,6,.08,12,0,17.94-.06,7.59-.6,7.12,7.42,6.71,5.87-.29,7.41-1.84,9-7.62a42.47,42.47,0,0,0,1-5.84C405.69,250.81,405.24,243.65,405.39,236.51Z" transform="translate(-147.17 -175.17)" style="fill:#f95184"/><path d="M470.4,296c-4.56.12-8.7-1.5-12.83-3.12-2.27-.89-4.45-2-6.68-3-1.42-.65-1.94-1.5-1.35-3.17,2.16-6.14,4.44-12.25,6.17-18.52,3.8-13.73,9.64-26.67,14.89-39.85,1.47-3.69,2.75-7.46,4-11.24.67-2,1.69-2.29,3.65-1.64a93.31,93.31,0,0,1,18.65,8.75c5.56,3.35,8.29,8.88,6.12,16-2.83,9.35-6.57,18.37-9.8,27.58-2,5.71-3.87,11.49-6.66,16.9-2.72,5.26-6.38,9.44-12.37,11a5.6,5.6,0,0,1-1.06.24C472.22,296,471.31,296,470.4,296Zm-1.94-10.81c5.61.29,9.35-2.29,11.94-6.81a28.25,28.25,0,0,0,2.34-5.48c2.18-6.78,4.4-13.55,6.58-20.33,1.57-4.9,3.81-9.56,5.08-14.57a6,6,0,0,0-1.56-6,21.56,21.56,0,0,0-9.49-5.56,1.93,1.93,0,0,0-2.71,1.41c-4.79,12.75-10.62,25.09-15,38-1.54,4.53-3.59,8.87-5.3,13.34-1.11,2.88-.62,3.77,2.26,4.95A13.44,13.44,0,0,0,468.46,285.18Z" transform="translate(-147.17 -175.17)" style="fill:#f95184"/><path d="M264.67,312.68c-.09.26-.1.37-.15.42-7,5.82-5.44,4.85-10.28-1-3.57-4.32-7.28-8.54-10.76-12.94-4.12-5.2-7.21-11.09-10.61-16.75-5.13-8.58-11.72-16.1-17.31-24.35-.34-.51-.91-.89-.91-1.74,1.57-1.71,3.86-2.48,5.86-3.67,1.2-.72,1.72.64,2.25,1.38,3.12,4.34,6.07,8.81,9.28,13.08,10.93,14.56,20.6,30,31.88,44.32A9.88,9.88,0,0,1,264.67,312.68Z" transform="translate(-147.17 -175.17)" style="fill:#f95184"/><path d="M439.41,242.76c-1-.27-2.76.17-2.86-1.79a3.48,3.48,0,0,1,3.38-3.24c1.45.12,3,.41,3,2.36C443,241.75,441.74,242.75,439.41,242.76Z" transform="translate(-147.17 -175.17)" style="fill:#f95184"/><path d="M353,309c2-.27,3,.62,3.33,2.62,1.36,8.74,4.75,16.79,8.46,24.74.73,1.55,2.57,3.46.66,5.14-1.7,1.5-3.34-.42-4.91-1.05-6-2.45-9.05-7.88-12.18-13a32.66,32.66,0,0,1-4.87-11.95c-.55-3.57.26-5.05,3.87-5.78C349.22,309.36,351.13,309.26,353,309Zm.58,2.77c-1.38.21-2.35.43-3.33.49-5.26.36-4.11,1-3.42,5.15a4.62,4.62,0,0,0,.31,1,54.83,54.83,0,0,0,9.39,15.73,13,13,0,0,0,6,3.87C358.5,329.45,354.75,321.2,353.59,311.81Z" transform="translate(-147.17 -175.17)" style="fill:#555253"/><path d="M409.09,337.52a11.2,11.2,0,0,1,1.34-5.3c3.05-6.62,6.58-13.06,8.37-20.2.45-1.79,1.43-2.59,3.29-2.41,1.17.1,2.35,0,3.53,0,3.63.1,5.73,2.8,4.58,6.22a48.07,48.07,0,0,1-8,14.66,42.34,42.34,0,0,1-7.57,7.74c-.5.38-1,.79-1.49,1.17a2.94,2.94,0,0,1-3.05.58C408.81,339.44,409.14,338.19,409.09,337.52Zm2.84-.79a49,49,0,0,0,15.31-21c.58-1.5.68-2.63-1.07-3.24-2-.69-4.65.08-5,1.51-1.31,5.29-3.88,10.06-6,15C414.07,331.47,412.49,333.71,411.93,336.73Z" transform="translate(-147.17 -175.17)" style="fill:#555253"/><path d="M545.48,275.25a6.89,6.89,0,0,1-.47,1.32c-3.81,6.69-6.41,13.94-9.65,20.89-1.67,3.57-2.11,3.7-5.37,1.55-1.66-1.1-3.26-2.27-5-3.24-2.25-1.24-2.39-2.29-.67-4.27a25.18,25.18,0,0,1,3-2.76c4.92-4.15,9.28-8.88,13.87-13.37.58-.57,1.17-1.13,1.79-1.66a1.41,1.41,0,0,1,1.74-.29C545.34,273.78,545.47,274.38,545.48,275.25Zm-7.05,8.11-.49-.46-11.4,10.34,5.85,3.91Z" transform="translate(-147.17 -175.17)" style="fill:#555253"/><path d="M405.39,236.51c-.15,7.14.3,14.3-.56,21.43a42.47,42.47,0,0,1-1,5.84c-1.55,5.78-3.09,7.33-9,7.62-8,.41-7.48.88-7.42-6.71,0-6-.1-12,0-17.94a249.6,249.6,0,0,1,2-29.17,33.22,33.22,0,0,0,.08-4.89c0-1.49.67-2.1,2.13-2.15a21.76,21.76,0,0,1,7.23.89c4.44,1.34,6.44,3.84,6.52,8.49C405.47,225.45,405.39,231,405.39,236.51Zm-12.73-23c-2.6,18.49-2.78,36.73-2.23,55,9.2.64,10-1,11.13-7.64.15-.89.42-1.76.49-2.66.94-12.66.47-25.35.54-38,0-2-.48-4-2.5-5.1A12.54,12.54,0,0,0,392.66,213.47Z" transform="translate(-147.17 -175.17)" style="fill:#555253"/><path d="M468.46,285.18a13.44,13.44,0,0,1-5.88-1.05c-2.88-1.18-3.37-2.07-2.26-4.95,1.71-4.47,3.76-8.81,5.3-13.34,4.4-12.91,10.23-25.25,15-38a1.93,1.93,0,0,1,2.71-1.41,21.56,21.56,0,0,1,9.49,5.56,6,6,0,0,1,1.56,6c-1.27,5-3.51,9.67-5.08,14.57-2.18,6.78-4.4,13.55-6.58,20.33a28.25,28.25,0,0,1-2.34,5.48C477.81,282.89,474.07,285.47,468.46,285.18Zm-5.82-4.25c6.2,3.23,12.2,1.55,15.49-4.25a23.88,23.88,0,0,0,1.95-4.74c3.2-10.14,6.45-20.26,10.2-30.21,2.33-6.15,2.5-7.38-4.47-11.34-.24-.13-.52-.18-.74-.33-1.36-.89-1.9-.42-2.52,1-5,11.75-10,23.55-14.26,35.6C466.57,271.51,464.53,276.2,462.64,280.93Z" transform="translate(-147.17 -175.17)" style="fill:#555253"/><path d="M353.59,311.81c1.16,9.39,4.91,17.64,8.91,26.28a13,13,0,0,1-6-3.87,54.83,54.83,0,0,1-9.39-15.73,4.62,4.62,0,0,1-.31-1c-.69-4.14-1.84-4.79,3.42-5.15C351.24,312.24,352.21,312,353.59,311.81Z" transform="translate(-147.17 -175.17)" style="fill:#fefefe"/><path d="M411.93,336.73c.56-3,2.14-5.26,3.2-7.69,2.15-5,4.72-9.72,6-15,.36-1.43,3-2.2,5-1.51,1.75.61,1.65,1.74,1.07,3.24A49,49,0,0,1,411.93,336.73Z" transform="translate(-147.17 -175.17)" style="fill:#fefefe"/><path d="M538.43,283.36l-6,13.79-5.85-3.91,11.4-10.34Z" transform="translate(-147.17 -175.17)" style="fill:#fefefe"/><path d="M392.66,213.47a12.54,12.54,0,0,1,7.43,1.55c2,1.06,2.51,3.09,2.5,5.1-.07,12.68.4,25.37-.54,38-.07.9-.34,1.77-.49,2.66-1.13,6.65-1.93,8.28-11.13,7.64C389.88,250.2,390.06,232,392.66,213.47Z" transform="translate(-147.17 -175.17)" style="fill:#fefefe"/><path d="M462.64,280.93c1.89-4.73,3.93-9.42,5.65-14.23,4.3-12,9.23-23.85,14.26-35.6.62-1.46,1.16-1.93,2.52-1,.22.15.5.2.74.33,7,4,6.8,5.19,4.47,11.34-3.75,10-7,20.07-10.2,30.21a23.88,23.88,0,0,1-1.95,4.74C474.84,282.48,468.84,284.16,462.64,280.93Z" transform="translate(-147.17 -175.17)" style="fill:#fefefe"/></svg>